<svg xmlns="http://www.w3.org/2000/svg" xmlns:xlink="http://www.w3.org/1999/xlink" version="1.1" x="0px" y="0px" viewBox="0 0 100 125" style="enable-background:new 0 0 100 100;" xml:space="preserve"><title>icons_set</title><path d="M50,57.6c-1.1,0-2-0.9-2-2s0.9-2,2-2h2.8c1.9,0,3.5-1.6,3.5-3.5v-11c0-1.9-1.6-3.5-3.5-3.5H33.4c-1.9,0-3.5,1.6-3.5,3.5v11  c0,1.9,1.6,3.5,3.5,3.5c1.1,0,2,0.9,2,2s-0.9,2-2,2c-4.2,0-7.6-3.4-7.6-7.6v-11c0-4.2,3.4-7.6,7.6-7.6h19.3c4.2,0,7.6,3.4,7.6,7.6  v11c0,4.2-3.4,7.6-7.6,7.6H50z M47.2,68.6c-4.2,0-7.6-3.4-7.6-7.6V50c0-4.2,3.4-7.6,7.6-7.6H50c1.1,0,2,0.9,2,2s-0.9,2-2,2h-2.8  c-1.9,0-3.5,1.6-3.5,3.5v11c0,1.9,1.6,3.5,3.5,3.5h19.3c1.9,0,3.5-1.6,3.5-3.5c0,0,0,0,0,0V50c0-1.9-1.6-3.5-3.5-3.5l0,0  c-1.1,0-2.1-0.9-2.1-2s0.9-2,2.1-2c4.2,0,7.6,3.4,7.6,7.6l0,0v11c0,4.2-3.4,7.6-7.6,7.6L47.2,68.6z"/><text x="0" y="115" fill="#000000" font-size="5px" font-weight="bold" font-family="'Helvetica Neue', Helvetica, Arial-Unicode, Arial, Sans-serif">Created by Nikhil Bapna</text><text x="0" y="120" fill="#000000" font-size="5px" font-weight="bold" font-family="'Helvetica Neue', Helvetica, Arial-Unicode, Arial, Sans-serif">from the Noun Project</text></svg>