<svg xmlns="http://www.w3.org/2000/svg" width="48.3" height="37.3" viewBox="0 0 48.3 37.3">
  <path id="Path_91" data-name="Path 91" d="M50,57.6a2,2,0,0,1,0-4h2.8a3.543,3.543,0,0,0,3.5-3.5v-11a3.543,3.543,0,0,0-3.5-3.5H33.4a3.543,3.543,0,0,0-3.5,3.5v11a3.543,3.543,0,0,0,3.5,3.5,2,2,0,0,1,0,4A7.6,7.6,0,0,1,25.8,50V39a7.6,7.6,0,0,1,7.6-7.6H52.7A7.6,7.6,0,0,1,60.3,39V50a7.6,7.6,0,0,1-7.6,7.6Zm-2.8,11A7.6,7.6,0,0,1,39.6,61V50a7.6,7.6,0,0,1,7.6-7.6H50a2,2,0,0,1,0,4H47.2a3.543,3.543,0,0,0-3.5,3.5v11a3.543,3.543,0,0,0,3.5,3.5H66.5A3.543,3.543,0,0,0,70,60.9h0V50a3.543,3.543,0,0,0-3.5-3.5h0a2.094,2.094,0,0,1-2.1-2,2.03,2.03,0,0,1,2.1-2,7.6,7.6,0,0,1,7.6,7.6h0v11a7.6,7.6,0,0,1-7.6,7.6Z" transform="translate(-25.8 -31.4)"/>
</svg>
